<?xml version="1.0" encoding="UTF-8" standalone="no"?>
<!-- Created with Inkscape (http://www.inkscape.org/) -->

<svg
   xmlns:dc="http://purl.org/dc/elements/1.1/"
   xmlns:cc="http://creativecommons.org/ns#"
   xmlns:rdf="http://www.w3.org/1999/02/22-rdf-syntax-ns#"
   xmlns:svg="http://www.w3.org/2000/svg"
   xmlns="http://www.w3.org/2000/svg"
   xmlns:sodipodi="http://sodipodi.sourceforge.net/DTD/sodipodi-0.dtd"
   xmlns:inkscape="http://www.inkscape.org/namespaces/inkscape"
   width="210mm"
   height="297mm"
   viewBox="0 0 210 297"
   version="1.1"
   id="svg8"
   inkscape:version="0.92.0 r15299"
   sodipodi:docname="logo.svg">
  <defs
     id="defs2" />
  <sodipodi:namedview
     id="base"
     pagecolor="#ffffff"
     bordercolor="#666666"
     borderopacity="1.0"
     inkscape:pageopacity="0.0"
     inkscape:pageshadow="2"
     inkscape:zoom="0.35"
     inkscape:cx="400"
     inkscape:cy="560"
     inkscape:document-units="mm"
     inkscape:current-layer="layer1"
     showgrid="false"
     inkscape:window-width="1600"
     inkscape:window-height="837"
     inkscape:window-x="-8"
     inkscape:window-y="-8"
     inkscape:window-maximized="1" />
  <metadata
     id="metadata5">
    <rdf:RDF>
      <cc:Work
         rdf:about="">
        <dc:format>image/svg+xml</dc:format>
        <dc:type
           rdf:resource="http://purl.org/dc/dcmitype/StillImage" />
        <dc:title></dc:title>
      </cc:Work>
    </rdf:RDF>
  </metadata>
  <g
     inkscape:label="Capa 1"
     inkscape:groupmode="layer"
     id="layer1">
    <g
       id="layer1-6"
       inkscape:label="Capa 1"
       transform="translate(11.339286,-93.738094)">
      <g
         transform="translate(-7.4176573,57.394773)"
         inkscape:label="Capa 1"
         id="layer1-9">
        <g
           id="g50">
          <g
             id="g42">
            <g
               id="g35">
              <g
                 id="g29">
                <text
                   xml:space="preserve"
                   style="font-style:normal;font-weight:normal;font-size:10.58333302px;line-height:6.61458302px;font-family:sans-serif;letter-spacing:0px;word-spacing:0px;fill:#ff6600;fill-opacity:1;stroke:none;stroke-width:0.26458332"
                   x="55.184521"
                   y="109.52381"
                   id="text12"><tspan
                     sodipodi:role="line"
                     id="tspan10"
                     x="55.184521"
                     y="109.52381"
                     style="font-size:50.79999924px;fill:#ff6600;stroke-width:0.26458332">S P </tspan><tspan
                     sodipodi:role="line"
                     x="55.184521"
                     y="116.1384"
                     style="font-size:50.79999924px;fill:#ff6600;stroke-width:0.26458332"
                     id="tspan14" /></text>
              </g>
            </g>
          </g>
        </g>
        <path
           style="fill:#ffd42a;fill-opacity:1;stroke-width:0.26458332"
           id="path32"
           d="m 32.510896,74.114471 c 1.330108,-2.008626 2.917468,-3.827904 4.391808,-5.730017 1.511184,-2.03285 3.219868,-3.907555 4.907746,-5.79283 3.176762,-3.200474 7.125044,-5.761866 11.439054,-7.153632 2.093862,-0.621589 4.26384,-0.680689 6.428912,-0.715397 4.187206,-0.0055 8.376076,-0.04429 12.561339,0.09222 4.261345,0.176062 8.4869,0.806691 12.661321,1.658086 3.087566,0.670933 6.221748,1.014534 9.309539,1.676178 2.594655,0.575952 5.249852,0.70281 7.896495,0.792345 2.63999,0.02117 5.28675,0.160319 7.92626,0.03098 2.47134,-0.121098 3.45381,-0.294304 5.96574,-0.606989 8.21056,-1.171937 16.01363,-4.110159 23.80597,-6.82806 4.79287,-1.785395 9.6217,-3.581064 14.08812,-6.097203 -1.86407,1.037224 -3.72815,2.074449 -5.59222,3.111674 0,0 7.25914,-2.867321 7.25914,-2.867321 v 0 c -2.56998,1.541441 -5.13996,3.082885 -7.70994,4.624327 -4.43377,2.330637 -9.15603,4.058798 -13.85958,5.756417 -7.8608,2.698589 -15.73223,5.592419 -23.99786,6.778342 -4.71458,0.58288 -9.43739,0.862193 -14.189132,0.64461 -2.687003,-0.09368 -5.376069,-0.26593 -8.002077,-0.887225 -3.05602,-0.661421 -6.166001,-1.023448 -9.215088,-1.724522 -4.138195,-0.779378 -8.298,-1.492406 -12.518573,-1.602788 -4.225062,-0.08935 -8.452217,-0.0554 -12.676933,0.04692 -2.142178,0.09819 -4.299228,0.225922 -6.337501,0.958321 -3.016822,1.227415 -1.128488,0.508487 5.098896,-3.161924 0.255929,-0.150845 -0.52112,0.286721 -0.769072,0.45035 -0.871783,0.575304 -1.560925,1.339005 -2.359596,2.004316 -1.974644,2.057982 0.30853,-0.37211 -1.627442,1.855409 -1.118179,1.286571 -2.382975,2.455085 -3.329493,3.886727 -0.55789,0.708943 -1.068049,1.454758 -1.630193,2.160333 -0.904478,1.135258 -1.944378,2.180405 -2.6798,3.444637 0,0 -7.24584,3.195714 -7.24584,3.195714 z"
           inkscape:connector-curvature="0" />
        <path
           style="fill:#ffd42a;fill-opacity:1;stroke-width:0.26458332"
           id="path42"
           d="m 36.259833,131.38935 c 2.461331,-2.14787 5.276424,-3.82347 7.945144,-5.69379 3.433892,-2.40975 7.165223,-4.38628 10.803543,-6.44978 1.200063,-0.68062 2.428772,-1.12086 3.740446,-1.52457 3.323582,-1.18432 6.788206,-1.6223 10.286516,-1.84921 4.823891,-0.26782 9.641742,-0.26734 14.435045,0.35941 2.812949,0.29744 5.514146,1.17761 8.292494,1.6617 1.912834,0.33328 2.656747,0.36876 4.640405,0.56746 5.823484,0.41359 11.669304,0.52046 17.505234,0.40702 3.57927,-0.14783 7.20344,-0.33861 10.73676,-0.98101 2.61655,-0.47571 3.65096,-0.85357 6.2643,-1.61176 8.18658,-2.29581 16.08124,-5.53069 23.86523,-8.92484 2.56577,-0.90431 13.80501,-7.29389 1.77268,-0.69706 0,0 7.20536,-2.84714 7.20536,-2.84714 v 0 c -4.83661,2.9268 -9.52168,6.0475 -14.79175,8.1401 -7.8381,3.32376 -15.75567,6.53619 -23.9525,8.87323 -2.82625,0.80063 -3.60959,1.10652 -6.42263,1.59748 -3.54497,0.61872 -7.17152,0.79642 -10.76089,0.88611 -5.87428,0.0783 -11.756296,-0.0194 -17.617981,-0.43322 -2.013929,-0.19761 -2.819231,-0.23336 -4.76278,-0.5814 -2.74187,-0.49101 -5.408653,-1.37771 -8.191619,-1.65621 -4.784006,-0.56857 -9.595504,-0.52537 -14.399602,-0.19638 -3.494722,0.3028 -6.951932,0.83958 -10.257972,2.0684 -1.177332,0.42823 -1.321229,0.44222 -2.414505,0.98266 -0.409435,0.2024 -1.603034,0.87539 -1.210705,0.64156 10.576155,-6.30343 4.58855,-2.7251 2.391887,-1.25323 -1.078752,0.76043 -2.137609,1.54984 -3.23559,2.28223 -1.541637,1.02833 -3.20044,1.91868 -4.507127,3.26176 0,0 -7.359393,2.97048 -7.359393,2.97048 z"
           inkscape:connector-curvature="0" />
      </g>
    </g>
  </g>
</svg>
